<?xml version="1.0" standalone="no"?><!DOCTYPE svg PUBLIC "-//W3C//DTD SVG 1.1//EN" "http://www.w3.org/Graphics/SVG/1.1/DTD/svg11.dtd"><svg t="1634035434272" class="icon" viewBox="0 0 1024 1024" version="1.1" xmlns="http://www.w3.org/2000/svg" p-id="31130" xmlns:xlink="http://www.w3.org/1999/xlink" width="32" height="32"><defs><style type="text/css"></style></defs><path d="M512 32C246.4 32 32 246.4 32 512s214.4 480 480 480 480-214.4 480-480S777.6 32 512 32zM284.8 675.2l38.4-105.6c0-3.2 3.2-6.4 6.4-9.6l256-256c3.2-3.2 12.8-3.2 16 0l64 64c3.2 3.2 3.2 12.8 0 16l-256 256c-3.2 3.2-6.4 3.2-9.6 6.4l-102.4 38.4c-6.4 0-12.8-6.4-12.8-9.6zM723.2 736h-416c-9.6 0-19.2-9.6-19.2-19.2s9.6-19.2 19.2-19.2h416c9.6 0 19.2 9.6 19.2 19.2s-9.6 19.2-19.2 19.2z m16-425.6l-25.6 25.6c-6.4 6.4-19.2 6.4-25.6 0l-54.4-54.4c-6.4-6.4-6.4-19.2 0-25.6l25.6-25.6c6.4-6.4 19.2-6.4 25.6 0l54.4 54.4c6.4 6.4 6.4 19.2 0 25.6z" p-id="31131" fill="#FF8C00"></path></svg>