<?xml version="1.0" standalone="no"?><!DOCTYPE svg PUBLIC "-//W3C//DTD SVG 1.1//EN" "http://www.w3.org/Graphics/SVG/1.1/DTD/svg11.dtd"><svg t="1633869858273" class="icon" viewBox="0 0 1170 1024" version="1.1" xmlns="http://www.w3.org/2000/svg" p-id="8041" xmlns:xlink="http://www.w3.org/1999/xlink" width="36.5625" height="32"><defs><style type="text/css"></style></defs><path d="M914.284661 155.062773a260.388619 260.388619 0 0 0-182.856732-69.119899h-2.925996a258.559621 258.559621 0 0 1 36.570946 46.810932 235.885654 235.885654 0 0 1 11.336984 21.211968 193.828716 193.828716 0 0 1 153.599775 228.204666 195.656713 195.656713 0 0 1-193.096717 155.062773h-9.873986c7.679989 4.022994 15.359978 8.776987 23.405966 13.53198s22.673967 14.262979 33.279951 21.942968a274.650598 274.650598 0 0 1 23.770965 18.284973 262.582615 262.582615 0 0 0 54.49192-22.307967 255.999625 255.999625 0 0 0 52.296924-413.622394z" p-id="8042" fill="#838383"></path><path d="M1170.284286 980.478564a33.645951 33.645951 0 0 1-36.571947 29.988956 34.37695 34.37695 0 0 1-30.353955-29.988956 365.713464 365.713464 0 0 0-252.70863-347.062492 497.736271 497.736271 0 0 0-46.079933-42.422938 197.119711 197.119711 0 0 0-24.501964-18.650972c-10.971984-8.045988-22.674967-16.091976-34.377949-23.039967a445.805347 445.805347 0 0 1 118.125827 19.382972 433.370365 433.370365 0 0 1 306.468551 411.793397z" p-id="8043" fill="#838383"></path><path d="M779.335858 627.199081c-7.313989-5.850991-14.627979-11.702983-22.307967-17.188975a484.93629 484.93629 0 0 0-83.382878-48.273929 345.599494 345.599494 0 0 0-57.051916-21.576968 219.428679 219.428679 0 0 0 24.868963-15.725977 285.988581 285.988581 0 0 0 85.942874-378.147446 275.016597 275.016597 0 0 0-48.639928-61.80591 292.570571 292.570571 0 0 0-498.102271 201.873705 288.548577 288.548577 0 0 0 151.039779 255.999625A469.576312 469.576312 0 0 0 0 987.428554a36.570946 36.570946 0 0 0 73.142893 0 399.359415 399.359415 0 0 1 402.285411-396.43442A399.359415 399.359415 0 0 1 877.712714 987.428554a36.570946 36.570946 0 0 0 73.142893 0A466.650316 466.650316 0 0 0 779.335858 627.199081zM475.429304 505.05026A219.428679 219.428679 0 0 1 255.999625 288.549577a219.428679 219.428679 0 0 1 345.233494-176.639741 193.462717 193.462717 0 0 1 51.199925 49.370928 213.576687 213.576687 0 0 1 42.422938 127.268813A216.136683 216.136683 0 0 1 581.119149 478.353299a211.016691 211.016691 0 0 1-69.119899 23.039967 174.810744 174.810744 0 0 1-36.570946 3.656994z" p-id="8044" fill="#838383"></path></svg>