<?xml version="1.0" standalone="no"?><!DOCTYPE svg PUBLIC "-//W3C//DTD SVG 1.1//EN" "http://www.w3.org/Graphics/SVG/1.1/DTD/svg11.dtd"><svg t="1634034600572" class="icon" viewBox="0 0 1024 1024" version="1.1" xmlns="http://www.w3.org/2000/svg" p-id="18146" xmlns:xlink="http://www.w3.org/1999/xlink" width="32" height="32"><defs><style type="text/css"></style></defs><path d="M511.843 19.272c-272.126 0-492.728 220.838-492.728 493.25 0 272.417 220.602 493.25 492.728 493.25 272.12 0 492.723-220.832 492.723-493.25 0-272.412-220.603-493.25-492.723-493.25z m242.763 742.096c0 9.532-5.24 18.311-13.653 22.798-8.363 4.437-18.587 4.036-26.497-1.359L510.698 646.148 306.892 782.811a25.788 25.788 0 0 1-14.411 4.382 25.734 25.734 0 0 1-12.091-3.022 25.778 25.778 0 0 1-13.698-22.793V367.642c0-14.271 11.585-25.82 25.789-25.82 14.305 0 25.789 11.549 25.789 25.82v345.374l178.019-119.36c8.769-5.853 20.052-5.853 28.71 0l178.023 119.36V288.22l-403.94 1.968c-15.064 1.917-25.839-11.45-25.941-25.67-0.05-14.27 11.43-25.92 25.69-25.97l429.879-2.118c8.413-1.361 13.402 2.725 18.286 7.508a25.794 25.794 0 0 1 7.609 18.311v499.119z" fill="#666666" p-id="18147"></path></svg>