<?xml version="1.0" standalone="no"?><!DOCTYPE svg PUBLIC "-//W3C//DTD SVG 1.1//EN" "http://www.w3.org/Graphics/SVG/1.1/DTD/svg11.dtd"><svg t="1633872347053" class="icon" viewBox="0 0 1024 1024" version="1.1" xmlns="http://www.w3.org/2000/svg" p-id="20866" xmlns:xlink="http://www.w3.org/1999/xlink" width="128" height="128"><defs><style type="text/css"></style></defs><path d="M677.81653333 811.03573333H176.43946667c-36.9952 0-67.09333333-30.09813333-67.09333334-67.08266666v-466.29333334c0-36.98986667 30.09813333-67.08693333 67.09333334-67.08693333h501.37706666c36.98453333 0 67.08266667 30.09706667 67.08266667 67.08693333v466.29333334c0 36.98453333-30.09813333 67.08266667-67.08266667 67.08266666zM176.43946667 266.304c-6.26453333 0-11.36 5.09546667-11.36 11.35466667v466.29333333c0 6.2592 5.09546667 11.34933333 11.36 11.34933333h501.37706666a11.36 11.36 0 0 0 11.34933334-11.34933333v-466.29333333a11.37066667 11.37066667 0 0 0-11.34933334-11.35466667H176.43946667z" fill="#333333" p-id="20867"></path><path d="M373.46773333 631.87626667a27.8528 27.8528 0 0 1-27.86346666-27.8688V417.58933333a27.8688 27.8688 0 0 1 42.816-23.51146666l146.5888 93.21386666a27.8688 27.8688 0 0 1-0.0064 47.0336l-146.58133334 93.20213334a27.8528 27.8528 0 0 1-14.9536 4.34773333z m27.86346667-163.5456v84.93546666l66.7872-42.46186666-66.7872-42.4736z m521.76 281.33546666a27.82506667 27.82506667 0 0 1-13.2928-3.37493333L703.74186667 634.4864a27.86346667 27.86346667 0 1 1 26.58133333-48.98133333l164.89813333 89.472v-328.33066667L730.32746667 436.16a27.8688 27.8688 0 0 1-26.59093334-48.97813333l206.05653334-111.84746667a27.86346667 27.86346667 0 0 1 41.1616 24.49386667V721.81333333a27.86346667 27.86346667 0 0 1-13.61493334 23.94773334 28.02773333 28.02773333 0 0 1-14.24853333 3.90506666z" fill="#333333" p-id="20868"></path></svg>